Coordinates
version=1
nRows=8
nColumns=40
inDegrees=yes

Units are S.I. units (second, meters, Newtons, ...)
Angles are in degrees.

endheader
time	pelvis_tilt	pelvis_list	pelvis_rotation	pelvis_tx	pelvis_ty	pelvis_tz	hip_flexion_r	hip_adduction_r	hip_rotation_r	knee_angle_r	knee_angle_r_beta	ankle_angle_r	subtalar_angle_r	mtp_angle_r	hip_flexion_l	hip_adduction_l	hip_rotation_l	knee_angle_l	knee_angle_l_beta	ankle_angle_l	subtalar_angle_l	mtp_angle_l	lumbar_extension	lumbar_bending	lumbar_rotation	arm_flex_r	arm_add_r	arm_rot_r	elbow_flex_r	pro_sup_r	wrist_flex_r	wrist_dev_r	arm_flex_l	arm_add_l	arm_rot_l	elbow_flex_l	pro_sup_l	wrist_flex_l	wrist_dev_l
     16.19250000	     -6.68134737	     -5.48137838	     -7.31236142	      0.95159715	      0.92599078	      0.52691420	     18.97741116	      4.90469524	     -8.20433178	     15.92506558	     15.92506558	      5.31267037	      5.26756735	     -4.85650696	      2.62847272	    -11.21855292	    -14.36301061	     26.28208948	     26.28208948	     15.47268159	    -15.20296027	     -0.32943874	     -9.06026220	      7.69883748	      0.69059743	     -0.93812236	    -15.18648301	    -14.81000948	     46.83465801	     45.60046285	      0.00000000	      0.00000000	      9.72415813	    -10.64238263	      5.46132274	     70.31391641	     46.81388700	      0.00000000	      0.00000000
     16.21171429	     -6.44785266	     -5.57226044	     -6.86820130	      0.95354178	      0.92675139	      0.53115051	     18.13950141	      5.13809012	     -8.48175168	     15.89479537	     15.89479537	      5.98451401	      5.26069389	     -4.39625517	      3.79533291	    -12.02091452	    -13.30053173	     29.67908842	     29.67908842	     14.32125805	    -16.34971811	     -0.83558389	     -9.06470389	      7.70478922	      1.15488965	     -0.66361460	    -15.93898027	    -13.94254241	     49.36975535	     45.47859828	      0.00000000	      0.00000000	      9.35373960	    -10.61884688	      6.37926825	     67.27768231	     46.73519362	      0.00000000	      0.00000000
     16.23092857	     -6.18088518	     -5.67302396	     -6.36623172	      0.95516394	      0.92733379	      0.53517146	     17.31915756	      5.37673204	     -8.75513967	     15.90192631	     15.90192631	      6.48889897	      5.05803726	     -4.44194405	      5.17037310	    -12.81609264	    -12.06003245	     33.38059626	     33.38059626	     13.18840065	    -17.30826107	     -0.97158771	     -9.11974796	      7.65957848	      1.01325533	      0.70133756	    -16.28556148	    -13.91926110	     50.49332810	     45.44681115	      0.00000000	      0.00000000	      8.24163873	    -10.89603708	      6.64268957	     65.39036443	     46.68652728	      0.00000000	      0.00000000
     16.25014286	     -5.92551776	     -5.66202545	     -5.85272361	      0.95638907	      0.92777366	      0.53882732	     16.66959345	      5.50677791	     -8.78980887	     16.12930966	     16.12930966	      7.11508915	      4.47607289	     -4.20865338	      6.80517721	    -13.37268465	    -10.56729060	     37.34921771	     37.34921771	     12.70915231	    -17.93041202	      0.98596116	     -9.09376499	      7.56506111	      1.36374527	      1.30165565	    -17.12575090	    -12.80658648	     52.97354948	     45.32689100	      0.00000000	      0.00000000	      8.38704594	    -10.47577753	      6.75715591	     60.25960171	     46.63540324	      0.00000000	      0.00000000
     16.26935714	     -5.67859980	     -5.76087338	     -5.25881939	      0.95726548	      0.92791022	      0.54227285	     16.04071437	      5.71919950	     -9.06209526	     16.34190779	     16.34190779	      7.62755498	      4.05303552	     -4.26747197	      8.56277296	    -14.03300049	     -9.07162752	     41.26356354	     41.26356354	     11.68124082	    -18.41834055	      1.53393317	     -9.13033978	      7.53122208	      1.13504737	      2.83347725	    -17.42955845	    -12.81078399	     54.32216975	     45.29089962	      0.00000000	      0.00000000	      7.25891107	    -10.77541713	      6.92978551	     58.12582301	     46.59003797	      0.00000000	      0.00000000
     16.28857143	     -5.40068554	     -5.69846630	     -4.66034419	      0.95768194	      0.92802760	      0.54523250	     15.57735279	      5.74118451	     -9.15272038	     16.85469874	     16.85469874	      8.37205305	      3.36658436	     -3.86608752	     10.56519645	    -14.19970450	     -7.12796954	     45.41397954	     45.41397954	     12.63038012	    -18.57099510	      7.62201990	     -9.18139814	      7.37820666	      1.59637345	      3.42797436	    -18.31135997	    -11.99143481	     57.24807057	     45.19214889	      0.00000000	      0.00000000	      7.69736289	    -10.16035140	      6.60861546	     52.45211014	     46.58062003	      0.00000000	      0.00000000
     16.30778571	     -5.10861529	     -5.71863735	     -4.00769509	      0.95783668	      0.92795607	      0.54800424	     15.12379270	      5.87307743	     -9.15475513	     17.37010404	     17.37010404	      9.01178378	      2.37966067	     -3.64025151	     12.45280827	    -14.44245442	     -5.43589802	     49.01739233	     49.01739233	     12.59886070	    -18.80434568	     10.76282888	     -9.25328370	      7.26874772	      1.66260066	      4.81389564	    -18.82049175	    -11.61840758	     59.01893347	     45.14939227	      0.00000000	      0.00000000	      7.39295073	     -9.98033259	      6.25881227	     48.36392477	     46.57770876	      0.00000000	      0.00000000
     16.32700000	     -4.79457260	     -5.70128704	     -3.32766675	      0.95768033	      0.92778247	      0.55051161	     14.73923385	      5.95104415	     -9.16455095	     18.00944157	     18.00944157	      9.67501997	      1.33678351	     -3.41637097	     14.27793931	    -14.58292902	     -3.92882342	     52.17181735	     52.17181735	     12.59923071	    -18.98542753	     13.50885379	     -9.36866073	      7.11877600	      1.58302303	      6.38586399	    -19.20025889	    -11.28669323	     60.93371955	     45.10041392	      0.00000000	      0.00000000	      6.95068570	     -9.92532592	      5.76367268	     44.64470815	     46.58883189	      0.00000000	      0.00000000
